# Blender v2.68 (sub 0) OBJ File: ''
# www.blender.org
mtllib cube2.mtl
o Cube
v 0.708971 -1.000000 -0.708972
v 0.708971 -1.000000 0.708971
v -0.708972 -1.000000 0.708971
v -0.708971 -1.000000 -0.708972
v 0.708972 1.000000 -0.708971
v 0.708971 1.000000 0.708972
v -0.708972 1.000000 0.708971
v -0.708971 1.000000 -0.708971
v 0.708872 -0.708971 -1.000000
v 1.000000 -0.708971 -0.708871
v 1.000000 -0.708971 0.708872
v 0.708871 -0.708971 1.000000
v -0.708872 -0.708971 1.000000
v -1.000000 -0.708971 0.708871
v -1.000000 -0.708971 -0.708872
v -0.708871 -0.708971 -1.000000
v 1.000000 0.708971 -0.708871
v 0.708872 0.708971 -1.000000
v 0.708871 0.708971 1.000000
v 1.000000 0.708971 0.708872
v -1.000000 0.708971 0.708871
v -0.708872 0.708971 1.000000
v -0.708871 0.708971 -1.000000
v -1.000000 0.708971 -0.708871
vt 0.749952 0.693711
vt 0.556229 0.693711
vt 0.749952 0.500015
vt 0.499999 0.193814
vt 0.499985 0.250046
vt 0.306274 0.193814
vt 0.499998 0.693725
vt 0.306274 0.693725
vt 0.499998 0.500001
vt 0.749952 0.749961
vt 0.798643 0.721837
vt 0.499998 0.999910
vt 0.306274 0.999910
vt 0.499984 0.943679
vt 0.499984 0.749955
vt 0.306288 0.749955
vt 0.499985 0.443770
vt 0.306288 0.250046
vt 0.056321 0.500015
vt 0.250044 0.500015
vt 0.056321 0.693711
vt 0.306275 0.500001
vt 0.056321 0.749961
vt 0.007629 0.721836
vt 0.499999 0.000090
vt 0.306274 0.000090
vt 0.806183 0.693725
vt 0.806183 0.500002
vt 0.056321 0.443765
vt 0.007629 0.471890
vt 0.749952 0.443765
vt 0.798644 0.471891
vt 0.528106 0.451300
vt 0.556229 0.500015
vt 0.278167 0.451300
vt 0.556228 0.749961
vt 0.250044 0.693711
vt 0.556229 0.443765
vt 0.250044 0.443765
vt 0.000090 0.500001
vt 0.000090 0.693725
vt 0.528106 0.742426
vt 0.278167 0.742426
vt 0.306288 0.943679
vt 0.306288 0.443770
vt 0.250044 0.749961
vn 1.000000 -0.000000 0.000000
vn -0.000000 -0.707107 0.707107
vn -0.000000 1.000000 0.000000
vn 0.577417 -0.577218 -0.577416
vn 0.000000 -0.707107 -0.707107
vn 0.000000 0.000000 -1.000000
vn -0.000000 -0.000000 1.000000
vn -1.000000 -0.000000 -0.000000
vn -0.000000 0.707107 0.707107
vn -0.707107 0.707107 -0.000000
vn -0.577416 -0.577218 -0.577416
vn 0.000000 -1.000000 0.000000
vn 0.707107 -0.707107 0.000000
vn -0.577416 -0.577218 0.577416
vn 0.577416 -0.577218 0.577417
vn 0.577416 0.577218 0.577417
vn -0.577417 0.577218 0.577416
vn 0.707107 0.000000 -0.707107
vn -0.707107 0.000000 -0.707107
vn 0.707107 -0.000000 0.707107
vn -0.707107 -0.000000 0.707107
vn -0.707107 -0.707107 -0.000000
vn 0.577416 0.577218 -0.577416
vn 0.707107 0.707107 0.000000
vn -0.577416 0.577218 -0.577416
vn 0.000000 0.707107 -0.707107
vn 1.000000 0.000000 0.000001
usemtl Material.001
s off
f 10/1/1 17/2/1 11/3/1
f 2/4/2 12/5/2 3/6/2
f 5/7/3 8/8/3 6/9/3
f 9/10/4 10/1/4 1/11/4
f 1/12/5 4/13/5 9/14/5
f 18/15/6 9/14/6 23/16/6
f 12/5/7 19/17/7 13/18/7
f 14/19/8 21/20/8 15/21/8
f 6/9/9 7/22/9 19/17/9
f 7/22/10 8/8/10 21/20/10
f 15/21/11 16/23/11 4/24/11
f 1/25/12 2/4/12 4/26/12
f 1/27/13 10/1/13 2/28/13
f 13/29/14 14/19/14 3/30/14
f 11/3/15 12/31/15 2/32/15
f 19/33/16 20/34/16 6/9/16
f 21/20/17 22/35/17 7/22/17
f 17/2/18 10/1/18 18/36/18
f 15/21/19 24/37/19 16/23/19
f 19/38/20 12/31/20 20/34/20
f 21/20/21 14/19/21 22/39/21
f 3/40/22 14/19/22 4/41/22
f 17/2/23 18/42/23 5/7/23
f 5/7/24 6/9/24 17/2/24
f 23/43/25 24/37/25 8/8/25
f 5/7/26 18/15/26 8/8/26
f 17/2/27 20/34/27 11/3/27
f 12/5/2 13/18/2 3/6/2
f 8/8/3 7/22/3 6/9/3
f 4/13/5 16/44/5 9/14/5
f 9/14/6 16/44/6 23/16/6
f 19/17/7 22/45/7 13/18/7
f 21/20/8 24/37/8 15/21/8
f 7/22/9 22/45/9 19/17/9
f 8/8/10 24/37/10 21/20/10
f 2/4/12 3/6/12 4/26/12
f 10/1/13 11/3/13 2/28/13
f 10/1/18 9/10/18 18/36/18
f 24/37/19 23/46/19 16/23/19
f 12/31/20 11/3/20 20/34/20
f 14/19/21 13/29/21 22/39/21
f 14/19/22 15/21/22 4/41/22
f 6/9/24 20/34/24 17/2/24
f 18/15/26 23/16/26 8/8/26
